<svg xmlns="http://www.w3.org/2000/svg" height="1024" preserveAspectRatio="none" style="display:block" viewBox="266.379 265.793 1519.026 1519.019" width="1024"><path d="M988.242 266.744c418.748-20.783 775.128 301.681 796.188 720.414 21.05 418.732-301.18 775.322-719.9 796.652-419.104 21.36-776.098-301.24-797.175-720.36-21.078-419.121 301.751-775.904 720.887-796.706"/><path d="M996.918 362.998c365.812-16.151 675.472 267.285 691.662 633.096 16.19 365.816-267.21 675.496-633.02 691.736-365.869 16.23-675.616-267.22-691.811-633.09-16.195-365.874 267.296-675.589 633.169-691.742" fill="#fff"/><path d="M558.639 972.392c16.476-.799 38.842-.231 55.559-.388 16.345-.153 49.76-1.31 64.525 2.203a74.9 74.9 0 0 1 30.221 15.25c39.453 32.873 22.277 86.763 25.316 131.763.662 9.81-.213 25.56-2.427 34.97a71.56 71.56 0 0 1-15.158 29.83c-13.771 16.22-30.466 23.64-51.359 25.3-20.212 1.54-46.433-.17-67.089-.21-14.678-.03-39.703 1.19-52.845-1.72a71.1 71.1 0 0 1-28.91-14c-30.401-24.29-29.838-57.35-28.535-92.93.798-21.8-2.536-50.95 2.115-71.78a75.2 75.2 0 0 1 15.53-31.966c14.165-17.15 31.358-24.269 53.057-26.322"/><path d="M589.196 1067.51c15.401-.23 30.804-.29 46.206-.16.111 7.68 1.204 41.78-.216 50.86-.088.56-2.267.56-2.936.58-16.109.09-32.219.05-48.328-.14-.219-14.5-.788-35.61.257-50.31.037-.53 2.641-.7 3.137-.72z" fill="#fff"/><path d="M962.725 444.4c29.39-1.133 59.225.127 88.665-.442 8.16-.158 16.85.237 24.86 1.851a70.2 70.2 0 0 1 28.15 12.302c22.73 16.747 32.4 44.831 30.67 72.383-1.78 28.438 4.09 66.409-1.49 93.723a80.9 80.9 0 0 1-14.45 32.389c-13.18 17.498-29.45 25.297-50.66 28.291l-69.733.136c-15.525-.043-36.107.754-50.929-2.687a71.55 71.55 0 0 1-28.377-13.6c-15.167-12.02-25.726-31.991-26.812-51.393-1.455-25.974-.237-52.466-.86-78.524-.277-11.597-.362-25.144 2.18-36.407a76.05 76.05 0 0 1 15.523-31.66c13.818-16.598 32.176-24.327 53.263-26.362"/><path d="M987.137 541.074q26.286-.737 52.583-.317c-1.4 15.403-.67 36.2-.84 52.114-17.29.121-34.59.144-51.884.069-.06-16.993-.199-34.952.141-51.866" fill="#fff"/><path d="M1176.58 841.509q3.795-.078 7.59-.109c23.45-.168 43.24 4.798 60.37 21.983 23.91 24 21.42 51.668 21.26 82.527l.04 48.034c-.07 33.886-6.99 60.056-37.89 78.206-21.25 12.48-42.09 10.49-65.66 10.35l-49.84-.31c-26.84.07-46.55-2.3-67.34-21.6-29.88-27.75-20.88-71.511-21.93-107.976-.97-33.505-2.71-64.632 22.28-89.893 23.73-23.985 51.43-21.322 82.66-21.209z"/><path d="M1118.13 937.34c17.32-.248 34.66-.183 51.98.195l-.08 51.425c-17.31-.005-34.62.076-51.92.244-.23-15.885-.58-36.2.02-51.864" fill="#fff"/><path d="M1364.7 841.405c13.85-1.454 35.71.002 50.28.051 18.83.063 46.5-1.783 64.41 2.349a68.9 68.9 0 0 1 28.83 14.205c14.41 11.994 26.04 34.672 26.05 52.45.01 26.135 3.32 93.34-1.77 115.54a73.26 73.26 0 0 1-15.54 31.03c-13.09 15.41-31.12 23.48-51.02 25.21-13.11.71-37.02.36-50.73.04-34.55-.82-67.5 5.87-95.72-17.59-14.35-11.93-24.52-29.31-25.4-47.8-.69-14.4-.85-35.479-.34-50.025 1.2-34.615-6.65-71.655 17.46-99.81 14.44-16.868 32.2-23.607 53.49-25.65"/><path d="M1388.47 937.96c16.8-.253 34.63-.322 51.43-.19.12 16.859.32 34.372-.08 51.18l-51.61.182c-.04-16.56-.01-34.639.26-51.172" fill="#fff"/><path d="M955.496 1365.21c12.121-1.11 38.039-.52 51.364-.4 17.42.17 53.42-1.28 69.22 1.74a70.7 70.7 0 0 1 26.74 11.32c15.51 10.67 28.28 30.28 30.16 48.12 2.33 22.04 4.24 96.91.46 116.25a79 79 0 0 1-13.24 30.62c-12.76 17.89-28.47 25.28-49.55 28.86-10.45 1.34-39.09.86-50.81.71-17.65-.24-50.214 1.48-66.422-1.35a74.3 74.3 0 0 1-28.768-11.41 73.92 73.92 0 0 1-31.192-47.61c-2.417-12.8-2.52-103.4-.167-115.94a77.8 77.8 0 0 1 12.507-30.03c12.243-17.75 28.805-27 49.698-30.88"/><path d="M986.96 1453.96c17.32-.13 34.65-.07 51.97.17.03 17.09.14 34.7-.09 51.76-16.97.38-34.92.26-51.939.19-.199-17.37-.18-34.75.059-52.12" fill="#fff"/><path d="M758.197 703.474c29.215-.504 64.719-1.056 93.641-.154 17.955 10.696 12.163 31.442 11.723 49.926-.379 15.922 2.945 45.682-2.282 59.152-10.11 10.467-44.709 7.014-59.62 6.877a2325 2325 0 0 0-68.821.54l.181 75.685c.043 13.02 2.415 39.853-5.118 49.93-1.759 1.132-5.201 3.222-7.273 3.224-18.106.018-79.009 5.136-91.843-4.342-2.687-4.513-4.569-11.302-4.198-16.505 4.484-62.999-15.203-133.195 34.674-183.105 30.282-30.301 58.262-40.145 98.936-41.228M1005.24 1103.4c13.98-1.2 34.77-.18 49.34-.45 18.88-.36 38.76-.05 57.72.05 11 .06 13.46 1.71 20.45 9.44 1.77 12.21 3.59 86.1-2.13 93.29-3.76 4.72-12.88 6.19-18.51 6.89-12.65 1.58-26.28.58-39.05.57l-72.35-.1-.05 113.16c-.17 4.47-.59 7.98-3.155 11.77a14.64 14.64 0 0 1-10.485 6.31c-5.548.65-21.718-.14-28.414-.08-15.735-.02-31.275 1.28-47.01.42-12.392-.69-19.344-7.82-19.792-20.18-.581-15.98.505-32.88.331-48.7-.498-45.41-4.363-90.28 28.315-126.87 22.825-26.91 49.666-42.17 84.79-45.52m300.44-.1c20.87-.73 44.59.96 64.98-.19 39.66-2.24 32.83 15.38 32.5 47.32l-.29 51.99c-.45 44.19-6.66 74.93-40.21 107.26-34.43 33.17-65.2 33.44-108.9 32.98-16.26-.37-32.53-.42-48.79-.14-57.01.74-49.19.57-48.97-54.18.03-6.46-2.44-43.23 2.28-46.29 12.94-8.39 41.39-5.94 57.28-5.93l78.4.18c.26-19.56-2.9-113.22 1-123.86 1.78-4.87 6.35-7.04 10.72-9.14m-535.311-1.92c39.845-.48 96.389-9.89 94.655 49.61-1.669 57.29 10.21 112.19-36.01 156.45-37.408 35.83-65.056 34.98-113.347 34.97-23.884.15-60.502 4.8-79.055-11.92-10.158-9.15-15.729-23.33-15.584-37.07.672-63.31-6.273-59.14 53.198-58.88 27.271.25 54.544.23 81.815-.07.229-16.21-2.235-118.63 2.277-125.78 2.55-4.05 7.636-6.14 12.051-7.31m146.322-259.89c25.181-.409 45.933-3.019 65.494 15.93 27.105 25.311 17.781 60.173 19.505 93.011 2.65 50.379-22.957 96.699-68.262 119.619-29.696 15.03-59.59 12.41-91.76 12.49-18.762-.02-57.372.88-74.651-1.32-8.649-6.44-11.188-12.18-11.236-23.07-.106-24 1.116-45.9 19.354-63.652 21.917-21.334 45.255-20.423 73.725-20.219l43.317.552c.239-35.01-.401-70.132-.407-105.153-.003-22.112 2.081-27.985 24.921-28.188m141.719-137.138c21.25-1.013 49.65-.259 71.43-.298l121.99-.101c10.08.082 23.36-1.213 20.42 14.022-7.28 37.778-22.96 60.391-53.79 82.623a114.1 114.1 0 0 1-30.69 14.688c-37.06 11.089-103.48 1.728-143.61 4.616-7.55.544-18.03-2.634-18.84-11.807-1.61-18.349-3.82-49.332-.47-67.19a52.7 52.7 0 0 1 7.08-18.435c6.74-10.656 14.53-15.403 26.48-18.118m253.19 2.123c64.97-1.287 99.58-3.559 94.26 76.388-1.11 16.567 5.35 36.018-17.33 38.445-13.56.207-81.63 3.396-89.15-3.715-3.34-3.157-4.73-10.513-5.27-14.828-1.47-11.886-2.2-85.117 3.35-91.64 3.41-4.011 9.32-4.259 14.14-4.65m-371.8-1.363c32.611-3.144 61.62 20.696 64.85 53.298s-20.537 61.67-53.13 64.987c-32.717 3.33-61.918-20.542-65.16-53.267-3.243-32.725 20.706-61.863 53.44-65.018"/><path d="M1198.09 1101.76c31.93-6.14 62.81 14.74 69 46.67 6.18 31.93-14.66 62.84-46.58 69.07-31.98 6.24-62.96-14.65-69.16-46.64-6.2-32 14.73-62.95 46.74-69.1m-121.24 129.35c32.34-1.12 59.5 24.09 60.79 56.42 1.28 32.32-23.79 59.61-56.11 61.07-32.56 1.46-60.09-23.84-61.38-56.4-1.3-32.56 24.14-59.96 56.7-61.09m131.03-665.645c31.8-4.232 60.97 18.219 65.02 50.043s-18.57 60.866-50.41 64.736c-31.59 3.838-60.35-18.558-64.37-50.126s18.21-60.455 49.76-64.653m-401.5 273.801c31.536-2.738 59.394 20.434 62.446 51.942s-19.84 59.595-51.316 62.962c-31.923 3.415-60.498-19.875-63.594-51.831s20.478-60.297 52.464-63.073m-9.061 531.264c31.247-6.05 61.494 14.34 67.6 45.58 6.107 31.23-14.233 61.52-45.459 67.68-31.304 6.18-61.68-14.23-67.801-45.54-6.122-31.32 14.333-61.66 45.66-67.72m3.388-804.998c31.671-4.206 60.731 18.123 64.822 49.809s-18.344 60.665-50.044 64.641c-31.539 3.956-60.337-18.34-64.407-49.863-4.07-31.524 18.121-60.403 49.629-64.587M535.944 838.484c31.413-4.75 60.745 16.817 65.577 48.218 4.832 31.4-16.658 60.789-48.046 65.703-31.504 4.932-61.025-16.656-65.875-48.172-4.85-31.517 16.815-60.981 48.344-65.749m669.836 530.036c31.5-5.38 61.36 15.9 66.55 47.43 5.2 31.53-16.27 61.26-47.83 66.26-31.29 4.95-60.71-16.29-65.86-47.55-5.14-31.25 15.92-60.8 47.14-66.14m263.77-269.12c31.58-4.59 60.87 17.39 65.28 49s-17.74 60.77-49.37 65c-31.38 4.2-60.25-17.74-64.63-49.09s17.39-60.35 48.72-64.91"/></svg>
